<svg xmlns="http://www.w3.org/2000/svg" xmlns:xlink="http://www.w3.org/1999/xlink" width="500" zoomAndPan="magnify" viewBox="0 0 375 187.499995" height="250" preserveAspectRatio="xMidYMid meet" version="1.0"><defs><g/></defs><g fill="#ff66c4" fill-opacity="1"><g transform="translate(8.69208, 104.130437)"><g><path d="M 26.53125 1.09375 C 21.976562 1.09375 17.847656 0.015625 14.140625 -2.140625 C 10.441406 -4.304688 7.507812 -7.265625 5.34375 -11.015625 C 3.1875 -14.765625 2.109375 -18.910156 2.109375 -23.453125 C 2.109375 -28.085938 3.15625 -32.269531 5.25 -36 C 7.34375 -39.726562 10.207031 -42.648438 13.84375 -44.765625 C 17.476562 -46.878906 21.566406 -47.9375 26.109375 -47.9375 C 28.566406 -47.9375 30.976562 -47.640625 33.34375 -47.046875 C 35.707031 -46.453125 37.726562 -45.613281 39.40625 -44.53125 L 37.578125 -33.953125 C 34.296875 -35.179688 31.335938 -35.796875 28.703125 -35.796875 C 25.066406 -35.796875 22.269531 -34.738281 20.3125 -32.625 C 18.363281 -30.507812 17.390625 -27.476562 17.390625 -23.53125 C 17.390625 -19.664062 18.421875 -16.648438 20.484375 -14.484375 C 22.554688 -12.328125 25.429688 -11.25 29.109375 -11.25 C 30.523438 -11.25 31.84375 -11.382812 33.0625 -11.65625 C 34.289062 -11.925781 35.796875 -12.425781 37.578125 -13.15625 L 39.484375 -2.390625 C 35.523438 -0.0664062 31.207031 1.09375 26.53125 1.09375 Z M 26.53125 1.09375 "/></g></g></g><g fill="#ff66c4" fill-opacity="1"><g transform="translate(49.877799, 104.130437)"><g><path d="M 39.953125 1.09375 C 31.410156 1.09375 26.1875 -2.863281 24.28125 -10.78125 L 22.5625 -17.796875 L 19.359375 -17.796875 L 19.359375 0 L 4.4375 0 L 4.4375 -46.90625 L 25.09375 -46.90625 C 29 -46.90625 32.441406 -46.328125 35.421875 -45.171875 C 38.398438 -44.015625 40.707031 -42.390625 42.34375 -40.296875 C 43.976562 -38.203125 44.796875 -35.796875 44.796875 -33.078125 C 44.796875 -30.023438 44.054688 -27.460938 42.578125 -25.390625 C 41.097656 -23.328125 38.816406 -21.632812 35.734375 -20.3125 C 36.046875 -18.59375 36.410156 -17.023438 36.828125 -15.609375 C 37.367188 -13.890625 38.113281 -12.6875 39.0625 -12 C 40.019531 -11.320312 41.410156 -10.984375 43.234375 -10.984375 C 43.867188 -10.984375 44.867188 -11.070312 46.234375 -11.25 L 46.234375 -0.140625 C 44.097656 0.679688 42.003906 1.09375 39.953125 1.09375 Z M 21.953125 -27.34375 C 25.316406 -27.34375 27.691406 -27.71875 29.078125 -28.46875 C 30.460938 -29.21875 31.15625 -30.503906 31.15625 -32.328125 C 31.15625 -33.867188 30.585938 -34.988281 29.453125 -35.6875 C 28.316406 -36.394531 26.519531 -36.75 24.0625 -36.75 L 19.359375 -36.75 L 19.359375 -27.34375 Z M 21.953125 -27.34375 "/></g></g></g><g fill="#ff66c4" fill-opacity="1"><g transform="translate(97.473225, 104.130437)"><g><path d="M 27.203125 1.09375 C 22.703125 1.09375 18.691406 0.226562 15.171875 -1.5 C 11.648438 -3.226562 8.910156 -5.648438 6.953125 -8.765625 C 4.992188 -11.878906 4.015625 -15.4375 4.015625 -19.4375 L 4.015625 -46.90625 L 19.4375 -46.90625 L 19.4375 -19.4375 C 19.4375 -16.707031 20.09375 -14.660156 21.40625 -13.296875 C 22.726562 -11.929688 24.660156 -11.25 27.203125 -11.25 C 29.753906 -11.25 31.6875 -11.941406 33 -13.328125 C 34.320312 -14.710938 34.984375 -16.75 34.984375 -19.4375 L 34.984375 -46.90625 L 50.390625 -46.90625 L 50.390625 -19.4375 C 50.390625 -15.4375 49.410156 -11.878906 47.453125 -8.765625 C 45.503906 -5.648438 42.765625 -3.226562 39.234375 -1.5 C 35.710938 0.226562 31.703125 1.09375 27.203125 1.09375 Z M 27.203125 1.09375 "/></g></g></g><g fill="#ff66c4" fill-opacity="1"><g transform="translate(151.887478, 104.130437)"><g><path d="M 18.953125 1.09375 C 12.546875 1.09375 7.140625 -0.0859375 2.734375 -2.453125 L 6.140625 -13.03125 C 10.816406 -11.34375 15 -10.5 18.6875 -10.5 C 20.6875 -10.5 22.148438 -10.738281 23.078125 -11.21875 C 24.015625 -11.695312 24.484375 -12.410156 24.484375 -13.359375 C 24.484375 -13.992188 24.234375 -14.550781 23.734375 -15.03125 C 23.234375 -15.507812 22.234375 -16.046875 20.734375 -16.640625 C 19.234375 -17.234375 16.984375 -17.957031 13.984375 -18.8125 C 10.296875 -19.90625 7.425781 -21.691406 5.375 -24.171875 C 3.332031 -26.648438 2.3125 -29.503906 2.3125 -32.734375 C 2.3125 -37.734375 3.957031 -41.515625 7.25 -44.078125 C 10.550781 -46.648438 15 -47.9375 20.59375 -47.9375 C 23.5 -47.9375 26.359375 -47.628906 29.171875 -47.015625 C 31.992188 -46.398438 34.5 -45.503906 36.6875 -44.328125 L 33 -34.03125 C 30.457031 -34.894531 28.242188 -35.519531 26.359375 -35.90625 C 24.472656 -36.289062 22.640625 -36.484375 20.859375 -36.484375 C 17.859375 -36.484375 16.359375 -35.664062 16.359375 -34.03125 C 16.359375 -33.207031 16.847656 -32.507812 17.828125 -31.9375 C 18.804688 -31.375 20.816406 -30.660156 23.859375 -29.796875 C 28.640625 -28.523438 32.253906 -26.582031 34.703125 -23.96875 C 37.160156 -21.351562 38.390625 -18.226562 38.390625 -14.59375 C 38.390625 -9.539062 36.753906 -5.660156 33.484375 -2.953125 C 30.210938 -0.253906 25.367188 1.09375 18.953125 1.09375 Z M 18.953125 1.09375 "/></g></g></g><g fill="#ff66c4" fill-opacity="1"><g transform="translate(192.254938, 104.130437)"><g><path d="M 4.4375 -46.90625 L 19.78125 -46.90625 L 19.78125 -28.234375 L 34.296875 -28.234375 L 34.296875 -46.90625 L 49.703125 -46.90625 L 49.703125 0 L 34.296875 0 L 34.296875 -18.40625 L 19.78125 -18.40625 L 19.78125 0 L 4.4375 0 Z M 4.4375 -46.90625 "/></g></g></g><g fill="#cb6ce6" fill-opacity="1"><g transform="translate(247.296927, 102.597915)"><g><path d="M 0.53125 3.863281 C 0.84375 3.863281 1.019531 3.820312 1.242188 3.683594 C 2.132812 3.417969 3.019531 3.195312 3.90625 3.019531 C 5.59375 2.796875 9.058594 2.265625 10.566406 1.507812 C 11.054688 1.289062 11.1875 0.886719 10.964844 0.578125 C 10.921875 0.445312 10.789062 0.355469 10.566406 0.355469 C 10.34375 0.355469 10.210938 0.398438 10.078125 0.445312 C 8.703125 0.976562 7.324219 1.289062 5.859375 1.507812 C 5.773438 1.554688 5.640625 1.554688 5.503906 1.554688 C 5.195312 1.554688 5.0625 1.289062 5.195312 0.710938 C 7.28125 -6.972656 9.679688 -14.296875 12.164062 -21.890625 C 12.386719 -22.597656 12.832031 -23 13.542969 -23.132812 C 15.316406 -23.621094 17.09375 -24.066406 18.871094 -24.554688 C 19.359375 -24.6875 19.714844 -24.820312 20.113281 -25.042969 C 20.335938 -25.175781 20.46875 -25.351562 20.425781 -25.617188 C 20.425781 -25.839844 20.15625 -26.152344 19.980469 -26.105469 C 19.757812 -26.0625 19.582031 -25.972656 19.445312 -25.929688 C 18.515625 -25.574219 17.539062 -25.261719 16.5625 -25.042969 C 15.539062 -24.820312 14.5625 -24.554688 13.585938 -24.285156 C 13.410156 -24.285156 13.1875 -24.332031 13.1875 -24.554688 C 13.140625 -24.863281 13.007812 -25.175781 12.699219 -25.21875 L 12.566406 -25.21875 C 12.433594 -25.21875 12.296875 -25.175781 12.210938 -25.042969 C 12.121094 -24.910156 12.03125 -24.820312 11.945312 -24.6875 L 11.808594 -24.421875 C 11.675781 -23.929688 11.320312 -23.664062 10.746094 -23.578125 C 9.5 -23.308594 5.371094 -22.066406 4.707031 -20.957031 C 4.574219 -20.734375 4.617188 -20.558594 4.75 -20.425781 C 4.839844 -20.289062 4.972656 -20.246094 5.152344 -20.246094 C 5.285156 -20.246094 5.417969 -20.289062 5.503906 -20.378906 C 7.058594 -21.578125 8.835938 -21.890625 10.613281 -22.378906 L 10.746094 -22.378906 C 10.964844 -22.378906 11.011719 -22.289062 10.964844 -22.066406 C 10.921875 -21.84375 10.878906 -21.667969 10.832031 -21.488281 C 10.789062 -21.3125 10.699219 -21.132812 10.65625 -20.957031 C 10.125 -19.359375 9.589844 -17.804688 9.101562 -16.25 C 8.570312 -14.695312 8.035156 -13.140625 7.546875 -11.542969 C 6.882812 -9.546875 6.261719 -7.59375 5.773438 -5.59375 C 5.238281 -3.597656 4.660156 -1.554688 4.085938 0.445312 L 3.773438 1.421875 C 3.683594 1.730469 3.507812 1.910156 3.195312 1.996094 C 2.488281 2.132812 1.777344 2.308594 1.066406 2.53125 C 0.800781 2.621094 0.488281 2.753906 0.175781 2.976562 C 0 3.0625 -0.0429688 3.242188 0 3.507812 C 0.132812 3.773438 0.3125 3.90625 0.53125 3.863281 Z M 0.53125 3.863281 "/></g></g></g><g fill="#cb6ce6" fill-opacity="1"><g transform="translate(260.616174, 102.597915)"><g><path d="M 0.976562 6.792969 C 1.109375 6.792969 1.242188 6.792969 1.289062 6.75 C 1.644531 6.660156 1.953125 6.480469 2.265625 6.171875 C 2.488281 5.949219 2.707031 5.683594 2.929688 5.460938 C 3.152344 5.238281 3.328125 4.972656 3.507812 4.75 C 3.90625 4.171875 4.308594 3.550781 4.707031 2.929688 C 5.105469 2.308594 5.460938 1.6875 5.859375 1.066406 C 7.105469 -0.886719 8.257812 -2.886719 9.457031 -4.882812 C 11.1875 -7.726562 13.097656 -10.921875 15.628906 -13.097656 C 15.984375 -13.410156 16.339844 -13.628906 16.695312 -13.851562 C 16.738281 -13.898438 16.78125 -13.898438 16.871094 -13.898438 C 17.09375 -13.898438 17.226562 -13.808594 17.273438 -13.585938 C 17.316406 -13.363281 17.316406 -13.1875 17.359375 -13.007812 C 17.359375 -12.832031 17.359375 -12.652344 17.40625 -12.433594 L 17.40625 -9.945312 C 17.273438 -8.390625 17.316406 -7.015625 17.539062 -5.460938 C 17.9375 -3.820312 18.292969 -2.265625 20.070312 -2.265625 C 20.113281 -2.265625 20.203125 -2.265625 20.289062 -2.308594 C 20.335938 -2.308594 20.425781 -2.308594 20.511719 -2.308594 C 21.179688 -2.441406 21.800781 -2.707031 22.378906 -3.109375 C 23.488281 -3.863281 27.21875 -8.035156 27.707031 -9.28125 C 27.75 -9.5 27.707031 -9.679688 27.484375 -9.769531 C 27.394531 -9.855469 27.304688 -9.902344 27.171875 -9.902344 C 26.863281 -9.902344 26.507812 -9.324219 26.375 -9.144531 C 25.484375 -8.035156 22.6875 -4.707031 21.84375 -4.128906 C 21.355469 -3.820312 20.914062 -3.507812 20.246094 -3.464844 C 19.757812 -3.464844 19.492188 -3.507812 19.179688 -3.996094 C 18.871094 -4.574219 18.78125 -5.152344 18.648438 -5.816406 C 18.425781 -7.546875 18.382812 -9.144531 18.515625 -10.878906 C 18.558594 -11.367188 18.558594 -11.855469 18.558594 -12.34375 C 18.558594 -12.832031 18.515625 -13.320312 18.425781 -13.808594 C 18.25 -14.695312 17.804688 -15.140625 17.09375 -15.140625 C 15.363281 -15.140625 12.476562 -11.5 11.5 -10.167969 C 10.257812 -8.4375 9.144531 -6.617188 8.035156 -4.796875 L 4.171875 1.6875 C 3.417969 2.886719 2.664062 4.039062 1.644531 5.0625 C 1.554688 5.152344 1.464844 5.152344 1.421875 5.105469 C 1.289062 5.105469 1.242188 5.0625 1.242188 4.929688 C 1.289062 4.707031 1.289062 4.527344 1.289062 4.351562 C 1.289062 4.128906 1.332031 3.953125 1.375 3.773438 C 1.597656 3.019531 1.777344 2.21875 1.953125 1.464844 C 2.132812 0.664062 2.308594 -0.132812 2.53125 -0.886719 C 4.085938 -6.4375 6.171875 -11.632812 8.613281 -16.917969 L 11.722656 -23.753906 C 11.808594 -23.929688 11.898438 -24.109375 11.988281 -24.285156 C 12.078125 -24.464844 12.121094 -24.640625 12.078125 -24.863281 C 12.03125 -25.085938 11.945312 -25.175781 11.855469 -25.21875 C 11.722656 -25.261719 11.675781 -25.308594 11.632812 -25.308594 C 11.542969 -25.308594 11.457031 -25.261719 11.320312 -25.21875 C 11.144531 -25.085938 11.011719 -24.910156 10.964844 -24.730469 C 10.878906 -24.554688 10.789062 -24.375 10.699219 -24.242188 C 9.945312 -22.511719 9.144531 -20.867188 8.390625 -19.226562 C 4.972656 -11.945312 1.996094 -4.441406 0.265625 3.417969 C 0.0898438 4.308594 -0.0898438 5.152344 0.0898438 6.039062 C 0.175781 6.527344 0.488281 6.792969 0.976562 6.792969 Z M 0.976562 6.792969 "/></g></g></g><g fill="#cb6ce6" fill-opacity="1"><g transform="translate(286.10031, 102.597915)"><g/></g></g><g fill="#cb6ce6" fill-opacity="1"><g transform="translate(302.971353, 102.597915)"><g><path d="M 0.753906 4.929688 C 0.976562 4.929688 1.15625 4.839844 1.332031 4.660156 C 1.644531 4.308594 1.910156 3.90625 2.132812 3.464844 C 2.441406 2.886719 2.707031 2.351562 2.976562 1.777344 C 3.195312 1.199219 3.464844 0.664062 3.730469 0.0898438 C 4.308594 -1.199219 4.929688 -2.441406 5.503906 -3.730469 C 6.082031 -4.972656 6.660156 -6.214844 7.238281 -7.460938 C 9.28125 -11.675781 12.609375 -17.226562 16.382812 -20.070312 C 16.515625 -20.113281 16.605469 -20.203125 16.738281 -20.289062 C 16.871094 -20.335938 17.003906 -20.425781 17.136719 -20.46875 L 17.226562 -20.46875 C 17.359375 -20.46875 17.449219 -20.425781 17.449219 -20.289062 C 17.449219 -20.113281 17.449219 -19.9375 17.449219 -19.757812 C 17.449219 -19.582031 17.40625 -19.402344 17.359375 -19.269531 C 17.183594 -18.027344 16.828125 -16.828125 16.472656 -15.628906 C 15.894531 -13.71875 15.273438 -11.808594 14.742188 -9.902344 C 14.386719 -8.523438 14.121094 -7.191406 13.984375 -5.640625 C 14.03125 -5.503906 14.03125 -5.328125 14.03125 -5.152344 C 13.984375 -4.972656 14.03125 -4.796875 14.074219 -4.617188 C 14.207031 -3.863281 14.5625 -3.507812 15.097656 -3.507812 C 15.363281 -3.507812 15.628906 -3.597656 15.894531 -3.773438 C 16.292969 -3.996094 16.695312 -4.351562 17.09375 -4.839844 C 17.582031 -5.460938 18.070312 -6.082031 18.515625 -6.660156 C 19.625 -8.214844 20.734375 -9.589844 21.976562 -10.964844 C 22.199219 -11.144531 22.378906 -11.320312 22.554688 -11.542969 C 22.734375 -11.722656 22.953125 -11.898438 23.175781 -12.03125 C 23.398438 -12.164062 23.578125 -12.253906 23.710938 -12.253906 C 24.242188 -12.253906 24.332031 -11.410156 24.464844 -11.011719 C 24.507812 -10.613281 24.597656 -10.257812 24.640625 -9.902344 C 24.6875 -9.5 24.773438 -9.101562 24.820312 -8.703125 C 24.910156 -8.167969 24.996094 -7.636719 25.085938 -7.105469 C 25.175781 -6.527344 25.261719 -5.992188 25.398438 -5.417969 C 25.664062 -4.171875 26.816406 -2.488281 28.105469 -2.488281 C 28.460938 -2.488281 28.90625 -2.621094 29.4375 -2.839844 C 30.414062 -3.375 34.320312 -8.214844 34.675781 -9.324219 C 34.722656 -9.546875 34.675781 -9.679688 34.453125 -9.769531 C 34.410156 -9.8125 34.277344 -9.855469 34.144531 -9.855469 C 34.011719 -9.855469 33.964844 -9.855469 33.921875 -9.8125 C 33.789062 -9.769531 33.699219 -9.679688 33.566406 -9.546875 C 32.457031 -8.035156 31.566406 -6.835938 30.902344 -5.90625 C 30.238281 -4.972656 29.746094 -4.441406 29.527344 -4.261719 C 29.039062 -3.863281 28.59375 -3.683594 28.195312 -3.683594 C 26.773438 -3.683594 26.417969 -6.039062 26.152344 -7.324219 L 25.617188 -11.234375 C 25.398438 -12.433594 25.042969 -13.453125 23.621094 -13.453125 C 23.132812 -13.410156 22.734375 -13.230469 22.332031 -12.875 C 21.667969 -12.296875 21.132812 -11.765625 20.601562 -11.101562 C 19.359375 -9.722656 18.335938 -8.347656 17.226562 -6.882812 C 16.828125 -6.304688 16.339844 -5.773438 15.851562 -5.238281 C 15.761719 -5.105469 15.628906 -5.015625 15.496094 -5.015625 C 15.40625 -5.015625 15.363281 -5.015625 15.316406 -5.0625 C 15.183594 -5.152344 15.140625 -5.328125 15.140625 -5.550781 C 15.140625 -6.570312 15.363281 -7.503906 15.585938 -8.4375 C 16.074219 -10.433594 16.605469 -12.34375 17.273438 -14.296875 C 17.761719 -15.851562 18.203125 -17.359375 18.515625 -18.914062 C 18.648438 -19.582031 18.691406 -20.289062 18.558594 -20.957031 C 18.382812 -21.667969 17.9375 -21.84375 17.273438 -21.84375 C 17.136719 -21.800781 17.003906 -21.757812 16.871094 -21.710938 C 16.738281 -21.667969 16.605469 -21.578125 16.472656 -21.535156 C 11.632812 -18.292969 7.8125 -11.542969 5.371094 -6.304688 C 4.882812 -5.195312 4.351562 -4.128906 3.863281 -3.019531 C 3.375 -1.910156 2.839844 -0.800781 2.351562 0.3125 C 2.265625 0.53125 2.175781 0.753906 2.085938 0.976562 C 1.953125 1.199219 1.863281 1.421875 1.777344 1.644531 C 1.730469 1.6875 1.6875 1.777344 1.644531 1.863281 C 1.597656 1.953125 1.507812 1.996094 1.375 1.996094 C 1.242188 1.996094 1.15625 1.953125 1.199219 1.863281 C 1.199219 1.730469 1.199219 1.644531 1.199219 1.554688 C 1.199219 1.375 1.242188 1.15625 1.289062 0.84375 C 1.644531 -1.996094 2.21875 -4.707031 3.0625 -7.371094 C 3.640625 -9.324219 4.261719 -11.277344 4.929688 -13.1875 C 5.550781 -15.097656 6.171875 -17.050781 6.792969 -19.003906 C 7.105469 -19.9375 7.371094 -20.824219 7.636719 -21.757812 C 7.859375 -22.644531 8.167969 -23.53125 8.523438 -24.421875 C 8.65625 -24.730469 8.613281 -24.996094 8.304688 -25.175781 C 8.257812 -25.21875 8.214844 -25.21875 8.082031 -25.21875 C 7.902344 -25.21875 7.726562 -25.128906 7.546875 -24.910156 C 7.414062 -24.6875 7.28125 -24.421875 7.191406 -24.199219 C 7.105469 -23.929688 7.015625 -23.664062 6.925781 -23.441406 L 4.128906 -14.5625 C 2.886719 -10.65625 1.597656 -6.882812 0.753906 -2.839844 C 0.355469 -0.886719 -0.0429688 0.976562 0 3.0625 C 0 3.285156 0 3.464844 0 3.683594 C 0 3.90625 0.0429688 4.128906 0.0898438 4.351562 C 0.175781 4.75 0.398438 4.929688 0.753906 4.929688 Z M 0.753906 4.929688 "/></g></g></g><g fill="#cb6ce6" fill-opacity="1"><g transform="translate(335.425901, 102.597915)"><g><path d="M 6.835938 11.542969 C 7.015625 11.542969 7.191406 11.5 7.371094 11.410156 C 9.769531 10.476562 12.386719 4.351562 12.964844 1.863281 C 13.1875 0.84375 13.71875 -0.0429688 14.519531 -0.886719 L 15.71875 -2.132812 C 18.027344 -4.484375 19.9375 -6.347656 22.421875 -8.523438 C 22.644531 -8.703125 22.867188 -8.878906 23.042969 -9.101562 C 23.222656 -9.324219 23.222656 -9.546875 23 -9.769531 C 22.867188 -9.902344 22.734375 -9.945312 22.597656 -9.945312 C 22.511719 -9.945312 22.421875 -9.945312 22.378906 -9.902344 C 21.976562 -9.589844 21.578125 -9.324219 20.734375 -8.570312 C 18.25 -6.347656 17.492188 -5.550781 15.050781 -3.109375 C 15.007812 -3.0625 14.917969 -2.976562 14.875 -2.886719 C 14.828125 -2.796875 14.695312 -2.753906 14.5625 -2.753906 C 14.472656 -2.753906 14.386719 -2.753906 14.339844 -2.796875 C 14.339844 -3.683594 15.671875 -8.570312 15.851562 -9.5 C 16.871094 -15.007812 17.894531 -20.378906 18.957031 -25.929688 C 19.003906 -26.0625 19.003906 -26.242188 19.003906 -26.417969 C 19.003906 -26.59375 19.003906 -26.773438 19.003906 -26.90625 C 19.003906 -27.171875 18.871094 -27.351562 18.605469 -27.484375 C 18.558594 -27.527344 18.46875 -27.527344 18.382812 -27.527344 C 17.894531 -27.527344 17.316406 -26.460938 17.136719 -26.0625 C 16.648438 -25.128906 16.160156 -24.199219 15.671875 -23.265625 C 15.183594 -22.332031 14.652344 -21.355469 14.164062 -20.425781 C 12.164062 -16.648438 9.855469 -13.097656 7.503906 -9.5 C 6.304688 -7.679688 4.839844 -5.992188 2.886719 -4.972656 C 2.574219 -4.839844 2.351562 -4.75 2.175781 -4.75 C 1.777344 -4.75 1.507812 -5.0625 1.375 -5.640625 C 1.15625 -6.527344 1.109375 -7.503906 1.199219 -8.523438 C 1.6875 -14.785156 4.972656 -23 8.746094 -27.925781 C 8.96875 -28.238281 9.28125 -28.414062 8.96875 -28.816406 C 8.925781 -28.90625 8.835938 -28.949219 8.703125 -28.949219 C 7.949219 -28.949219 6.128906 -26.195312 5.773438 -25.484375 C 2.753906 -20.289062 0.621094 -14.5625 0.0429688 -8.570312 C -0.0898438 -7.28125 0 -6.082031 0.398438 -4.972656 C 0.710938 -4.039062 1.289062 -3.550781 2.042969 -3.550781 C 4.394531 -3.550781 7.460938 -7.371094 8.703125 -9.234375 C 11.367188 -13.320312 13.898438 -17.359375 16.160156 -21.667969 C 16.339844 -22.023438 16.515625 -22.378906 16.738281 -22.6875 C 16.78125 -22.777344 16.871094 -22.820312 16.960938 -22.820312 C 17.09375 -22.820312 17.183594 -22.820312 17.226562 -22.777344 C 16.738281 -21.046875 16.515625 -19.402344 16.207031 -17.671875 C 15.894531 -16.160156 15.628906 -14.652344 15.40625 -13.1875 C 15.140625 -11.675781 14.828125 -10.167969 14.472656 -8.703125 C 14.03125 -7.148438 12.875 -1.199219 12.296875 -0.175781 C 12.078125 0.3125 11.765625 0.800781 11.367188 1.199219 C 10.964844 1.597656 10.613281 2.042969 10.300781 2.488281 C 8.523438 4.796875 6.835938 6.972656 5.90625 9.769531 C 5.859375 9.988281 5.816406 10.210938 5.816406 10.34375 C 5.773438 11.054688 6.261719 11.542969 6.835938 11.542969 Z M 7.371094 9.988281 C 7.324219 9.988281 7.28125 9.945312 7.238281 9.902344 C 7.058594 9.769531 7.191406 9.546875 7.238281 9.367188 C 7.371094 9.144531 7.414062 8.96875 7.460938 8.835938 C 8.125 7.460938 8.925781 6.214844 9.8125 5.015625 C 10.167969 4.527344 10.433594 4.128906 10.746094 3.640625 C 10.921875 3.820312 10.964844 4.039062 10.878906 4.308594 C 10.167969 6.082031 9.414062 7.859375 8.125 9.324219 C 8.035156 9.457031 7.902344 9.589844 7.726562 9.769531 C 7.679688 9.8125 7.59375 9.855469 7.546875 9.902344 C 7.503906 9.945312 7.414062 9.988281 7.371094 9.988281 Z M 7.371094 9.988281 "/></g></g></g><g fill="#ff66c4" fill-opacity="1"><g transform="translate(17.931299, 143.636356)"><g><path d="M 4.203125 -15.15625 C 4.203125 -15.9375 4.144531 -16.507812 4.03125 -16.875 C 3.914062 -17.25 3.742188 -17.507812 3.515625 -17.65625 C 3.285156 -17.800781 2.914062 -17.941406 2.40625 -18.078125 C 2.332031 -18.097656 2.15625 -18.148438 1.875 -18.234375 C 1.59375 -18.316406 1.300781 -18.414062 1 -18.53125 L 1.03125 -19.296875 L 9.453125 -19.296875 C 11.054688 -19.296875 12.46875 -19.203125 13.6875 -19.015625 C 14.90625 -18.835938 15.96875 -18.390625 16.875 -17.671875 C 17.78125 -16.960938 18.234375 -15.890625 18.234375 -14.453125 C 18.234375 -12.023438 16.453125 -10.507812 12.890625 -9.90625 C 13.921875 -9.863281 14.914062 -9.671875 15.875 -9.328125 C 16.832031 -8.984375 17.628906 -8.460938 18.265625 -7.765625 C 18.898438 -7.078125 19.21875 -6.210938 19.21875 -5.171875 C 19.21875 -3.929688 18.835938 -2.925781 18.078125 -2.15625 C 17.316406 -1.382812 16.367188 -0.832031 15.234375 -0.5 C 14.097656 -0.164062 12.921875 0 11.703125 0 L 1.03125 0 L 1 -0.765625 L 1.546875 -0.921875 C 2.117188 -1.066406 2.582031 -1.210938 2.9375 -1.359375 C 3.289062 -1.515625 3.585938 -1.742188 3.828125 -2.046875 C 4.078125 -2.347656 4.203125 -2.757812 4.203125 -3.28125 Z M 7.390625 -10.8125 C 7.523438 -10.6875 7.707031 -10.582031 7.9375 -10.5 C 8.164062 -10.414062 8.378906 -10.375 8.578125 -10.375 L 10.546875 -10.375 C 13.710938 -10.375 15.296875 -11.570312 15.296875 -13.96875 C 15.296875 -15.25 14.9375 -16.195312 14.21875 -16.8125 C 13.5 -17.425781 12.648438 -17.804688 11.671875 -17.953125 C 10.691406 -18.097656 9.492188 -18.171875 8.078125 -18.171875 L 7.390625 -18.171875 Z M 7.390625 -4.0625 C 7.390625 -3.363281 7.507812 -2.722656 7.75 -2.140625 C 8 -1.566406 8.421875 -1.28125 9.015625 -1.28125 L 11.421875 -1.28125 C 12.179688 -1.28125 12.867188 -1.425781 13.484375 -1.71875 C 14.109375 -2.007812 14.601562 -2.4375 14.96875 -3 C 15.332031 -3.5625 15.515625 -4.222656 15.515625 -4.984375 C 15.515625 -6.304688 15.117188 -7.285156 14.328125 -7.921875 C 13.535156 -8.554688 12.613281 -8.945312 11.5625 -9.09375 C 10.507812 -9.25 9.242188 -9.328125 7.765625 -9.328125 C 7.597656 -9.179688 7.492188 -9.003906 7.453125 -8.796875 C 7.410156 -8.597656 7.390625 -8.34375 7.390625 -8.03125 Z M 7.390625 -4.0625 "/></g></g></g><g fill="#ff66c4" fill-opacity="1"><g transform="translate(62.747683, 143.636356)"><g><path d="M 5.875 -7.875 L 5.578125 -7.171875 C 5.140625 -6.015625 4.789062 -5.0625 4.53125 -4.3125 C 4.28125 -3.570312 4.15625 -3 4.15625 -2.59375 C 4.15625 -2.238281 4.285156 -1.945312 4.546875 -1.71875 C 4.804688 -1.488281 5.101562 -1.316406 5.4375 -1.203125 C 5.78125 -1.097656 6.203125 -1 6.703125 -0.90625 L 6.984375 -0.84375 L 6.984375 0 L -0.015625 0 L -0.015625 -0.765625 C 0.117188 -0.878906 0.257812 -0.972656 0.40625 -1.046875 C 0.550781 -1.117188 0.734375 -1.195312 0.953125 -1.28125 C 1.296875 -1.425781 1.570312 -1.570312 1.78125 -1.71875 C 2 -1.863281 2.191406 -2.097656 2.359375 -2.421875 C 2.453125 -2.617188 2.550781 -2.84375 2.65625 -3.09375 C 2.757812 -3.34375 2.828125 -3.503906 2.859375 -3.578125 L 3.03125 -4.046875 L 8.578125 -18.234375 C 8.617188 -18.347656 8.648438 -18.535156 8.671875 -18.796875 C 8.679688 -18.992188 8.695312 -19.15625 8.71875 -19.28125 C 8.738281 -19.40625 8.785156 -19.515625 8.859375 -19.609375 C 9.347656 -19.609375 9.765625 -19.5625 10.109375 -19.46875 C 10.460938 -19.375 10.816406 -19.191406 11.171875 -18.921875 L 17.96875 -2.609375 C 18.101562 -2.296875 18.253906 -2.046875 18.421875 -1.859375 C 18.585938 -1.679688 18.757812 -1.546875 18.9375 -1.453125 C 19.125 -1.359375 19.375 -1.25 19.6875 -1.125 C 19.957031 -1.039062 20.238281 -0.921875 20.53125 -0.765625 L 20.5 0 L 11.875 0 L 11.859375 -0.765625 C 12.316406 -0.910156 12.710938 -1.050781 13.046875 -1.1875 C 13.378906 -1.320312 13.675781 -1.515625 13.9375 -1.765625 C 14.207031 -2.015625 14.34375 -2.316406 14.34375 -2.671875 C 14.34375 -3.066406 13.847656 -4.53125 12.859375 -7.0625 C 12.796875 -7.21875 12.738281 -7.363281 12.6875 -7.5 C 12.632812 -7.632812 12.585938 -7.757812 12.546875 -7.875 Z M 9.078125 -16.46875 L 6.375 -9.1875 L 12 -9.1875 Z M 9.078125 -16.46875 "/></g></g></g><g fill="#ff66c4" fill-opacity="1"><g transform="translate(107.415939, 143.636356)"><g><path d="M 18.875 -13.9375 C 18.75 -14.070312 18.609375 -14.253906 18.453125 -14.484375 C 18.304688 -14.710938 18.164062 -14.953125 18.03125 -15.203125 C 18 -15.253906 17.921875 -15.382812 17.796875 -15.59375 C 17.671875 -15.8125 17.550781 -16 17.4375 -16.15625 C 17.332031 -16.320312 17.226562 -16.453125 17.125 -16.546875 C 16.46875 -17.210938 15.734375 -17.707031 14.921875 -18.03125 C 14.117188 -18.351562 13.273438 -18.515625 12.390625 -18.515625 C 11.097656 -18.515625 9.894531 -18.179688 8.78125 -17.515625 C 7.675781 -16.847656 6.789062 -15.878906 6.125 -14.609375 C 5.457031 -13.335938 5.125 -11.828125 5.125 -10.078125 C 5.125 -8.285156 5.445312 -6.71875 6.09375 -5.375 C 6.738281 -4.039062 7.65625 -3.007812 8.84375 -2.28125 C 10.039062 -1.5625 11.429688 -1.203125 13.015625 -1.203125 C 14.359375 -1.203125 15.550781 -1.476562 16.59375 -2.03125 C 17.632812 -2.59375 18.441406 -3.414062 19.015625 -4.5 L 19.734375 -4.40625 L 19.609375 -1.59375 C 18.523438 -1 17.28125 -0.519531 15.875 -0.15625 C 14.46875 0.207031 13.15625 0.390625 11.9375 0.390625 C 10 0.390625 8.25 -0.0078125 6.6875 -0.8125 C 5.132812 -1.613281 3.90625 -2.757812 3 -4.25 C 2.101562 -5.738281 1.65625 -7.484375 1.65625 -9.484375 C 1.65625 -11.367188 2.113281 -13.085938 3.03125 -14.640625 C 3.957031 -16.191406 5.265625 -17.414062 6.953125 -18.3125 C 8.640625 -19.207031 10.585938 -19.65625 12.796875 -19.65625 C 14.828125 -19.65625 16.882812 -19.253906 18.96875 -18.453125 L 19.578125 -13.96875 Z M 18.875 -13.9375 "/></g></g></g><g fill="#ff66c4" fill-opacity="1"><g transform="translate(152.82483, 143.636356)"><g><path d="M 8.84375 -10.75 L 15.59375 -17.453125 C 15.632812 -17.566406 15.65625 -17.675781 15.65625 -17.78125 C 15.65625 -18.050781 15.535156 -18.234375 15.296875 -18.328125 C 15.066406 -18.421875 14.707031 -18.488281 14.21875 -18.53125 C 13.832031 -18.570312 13.546875 -18.617188 13.359375 -18.671875 C 13.179688 -18.734375 13.09375 -18.851562 13.09375 -19.03125 C 13.09375 -19.050781 13.117188 -19.140625 13.171875 -19.296875 L 21.53125 -19.296875 L 21.59375 -19.03125 C 21.59375 -18.894531 21.40625 -18.765625 21.03125 -18.640625 C 20.65625 -18.515625 20.140625 -18.378906 19.484375 -18.234375 C 18.535156 -18.023438 17.832031 -17.734375 17.375 -17.359375 L 11.625 -11.46875 L 18.5625 -1.921875 C 18.6875 -1.785156 18.90625 -1.65625 19.21875 -1.53125 C 19.53125 -1.40625 19.945312 -1.257812 20.46875 -1.09375 C 21.03125 -0.925781 21.457031 -0.773438 21.75 -0.640625 C 22.039062 -0.515625 22.1875 -0.390625 22.1875 -0.265625 C 22.1875 -0.160156 22.164062 -0.0703125 22.125 0 L 11.984375 0 C 11.921875 -0.125 11.890625 -0.207031 11.890625 -0.25 C 11.890625 -0.394531 11.984375 -0.5 12.171875 -0.5625 C 12.359375 -0.632812 12.644531 -0.695312 13.03125 -0.75 C 13.507812 -0.820312 13.867188 -0.90625 14.109375 -1 C 14.347656 -1.09375 14.46875 -1.265625 14.46875 -1.515625 C 14.46875 -1.609375 14.382812 -1.765625 14.21875 -1.984375 L 8.90625 -9.78125 L 7.578125 -9.78125 L 7.578125 -1.84375 C 7.578125 -1.53125 7.675781 -1.296875 7.875 -1.140625 C 8.070312 -0.992188 8.3125 -0.894531 8.59375 -0.84375 C 8.882812 -0.800781 9.253906 -0.769531 9.703125 -0.75 C 10.191406 -0.726562 10.539062 -0.6875 10.75 -0.625 C 10.96875 -0.570312 11.078125 -0.457031 11.078125 -0.28125 C 11.078125 -0.257812 11.054688 -0.164062 11.015625 0 L 1.078125 0 C 1.035156 -0.113281 1.015625 -0.195312 1.015625 -0.25 C 1.015625 -0.414062 1.125 -0.53125 1.34375 -0.59375 C 1.5625 -0.664062 1.894531 -0.722656 2.34375 -0.765625 C 2.78125 -0.828125 3.128906 -0.882812 3.390625 -0.9375 C 3.660156 -1 3.894531 -1.109375 4.09375 -1.265625 C 4.289062 -1.429688 4.390625 -1.648438 4.390625 -1.921875 L 4.390625 -17.28125 C 4.390625 -17.664062 4.207031 -17.9375 3.84375 -18.09375 C 3.476562 -18.25 2.960938 -18.375 2.296875 -18.46875 C 1.835938 -18.550781 1.503906 -18.625 1.296875 -18.6875 C 1.097656 -18.757812 1 -18.875 1 -19.03125 C 1 -19.050781 1.023438 -19.140625 1.078125 -19.296875 L 10.953125 -19.296875 C 10.992188 -19.160156 11.015625 -19.070312 11.015625 -19.03125 C 11.015625 -18.863281 10.90625 -18.742188 10.6875 -18.671875 C 10.46875 -18.609375 10.125 -18.539062 9.65625 -18.46875 C 9.21875 -18.40625 8.859375 -18.335938 8.578125 -18.265625 C 8.296875 -18.203125 8.054688 -18.085938 7.859375 -17.921875 C 7.671875 -17.765625 7.578125 -17.550781 7.578125 -17.28125 L 7.578125 -10.75 Z M 8.84375 -10.75 "/></g></g></g><g fill="#ff66c4" fill-opacity="1"><g transform="translate(198.841058, 143.636356)"><g><path d="M 19.609375 -18.421875 C 19.046875 -18.191406 18.59375 -17.988281 18.25 -17.8125 C 17.90625 -17.632812 17.566406 -17.40625 17.234375 -17.125 C 16.910156 -16.851562 16.613281 -16.507812 16.34375 -16.09375 L 11.484375 -8.640625 L 11.484375 -3.640625 C 11.484375 -2.960938 11.546875 -2.457031 11.671875 -2.125 C 11.804688 -1.800781 11.984375 -1.582031 12.203125 -1.46875 C 12.421875 -1.363281 12.75 -1.273438 13.1875 -1.203125 C 13.769531 -1.097656 14.273438 -0.953125 14.703125 -0.765625 L 14.671875 0 L 5.09375 0 L 5.0625 -0.765625 C 5.320312 -0.921875 5.566406 -1.023438 5.796875 -1.078125 C 6.035156 -1.140625 6.328125 -1.195312 6.671875 -1.25 C 7.085938 -1.300781 7.394531 -1.375 7.59375 -1.46875 C 7.800781 -1.570312 7.96875 -1.796875 8.09375 -2.140625 C 8.226562 -2.492188 8.296875 -3.035156 8.296875 -3.765625 L 8.296875 -8.328125 L 2.890625 -16.796875 C 2.660156 -17.148438 2.234375 -17.5 1.609375 -17.84375 C 0.992188 -18.195312 0.445312 -18.425781 -0.03125 -18.53125 L -0.03125 -19.296875 L 9.15625 -19.296875 L 9.1875 -18.515625 C 8.613281 -18.421875 8.070312 -18.242188 7.5625 -17.984375 C 7.050781 -17.722656 6.796875 -17.367188 6.796875 -16.921875 C 6.796875 -16.609375 7.117188 -15.925781 7.765625 -14.875 C 8.421875 -13.820312 9.273438 -12.507812 10.328125 -10.9375 L 11.015625 -9.875 C 11.078125 -9.988281 11.21875 -10.195312 11.4375 -10.5 C 13.726562 -13.894531 14.875 -16.023438 14.875 -16.890625 C 14.875 -17.285156 14.679688 -17.585938 14.296875 -17.796875 C 13.910156 -18.015625 13.410156 -18.203125 12.796875 -18.359375 C 12.773438 -18.359375 12.65625 -18.394531 12.4375 -18.46875 L 12.40625 -18.859375 C 12.40625 -18.929688 12.414062 -19.078125 12.4375 -19.296875 L 19.875 -19.296875 L 19.875 -18.515625 Z M 19.609375 -18.421875 "/></g></g></g><g fill="#ff66c4" fill-opacity="1"><g transform="translate(243.05012, 143.636356)"><g><path d="M 5.875 -7.875 L 5.578125 -7.171875 C 5.140625 -6.015625 4.789062 -5.0625 4.53125 -4.3125 C 4.28125 -3.570312 4.15625 -3 4.15625 -2.59375 C 4.15625 -2.238281 4.285156 -1.945312 4.546875 -1.71875 C 4.804688 -1.488281 5.101562 -1.316406 5.4375 -1.203125 C 5.78125 -1.097656 6.203125 -1 6.703125 -0.90625 L 6.984375 -0.84375 L 6.984375 0 L -0.015625 0 L -0.015625 -0.765625 C 0.117188 -0.878906 0.257812 -0.972656 0.40625 -1.046875 C 0.550781 -1.117188 0.734375 -1.195312 0.953125 -1.28125 C 1.296875 -1.425781 1.570312 -1.570312 1.78125 -1.71875 C 2 -1.863281 2.191406 -2.097656 2.359375 -2.421875 C 2.453125 -2.617188 2.550781 -2.84375 2.65625 -3.09375 C 2.757812 -3.34375 2.828125 -3.503906 2.859375 -3.578125 L 3.03125 -4.046875 L 8.578125 -18.234375 C 8.617188 -18.347656 8.648438 -18.535156 8.671875 -18.796875 C 8.679688 -18.992188 8.695312 -19.15625 8.71875 -19.28125 C 8.738281 -19.40625 8.785156 -19.515625 8.859375 -19.609375 C 9.347656 -19.609375 9.765625 -19.5625 10.109375 -19.46875 C 10.460938 -19.375 10.816406 -19.191406 11.171875 -18.921875 L 17.96875 -2.609375 C 18.101562 -2.296875 18.253906 -2.046875 18.421875 -1.859375 C 18.585938 -1.679688 18.757812 -1.546875 18.9375 -1.453125 C 19.125 -1.359375 19.375 -1.25 19.6875 -1.125 C 19.957031 -1.039062 20.238281 -0.921875 20.53125 -0.765625 L 20.5 0 L 11.875 0 L 11.859375 -0.765625 C 12.316406 -0.910156 12.710938 -1.050781 13.046875 -1.1875 C 13.378906 -1.320312 13.675781 -1.515625 13.9375 -1.765625 C 14.207031 -2.015625 14.34375 -2.316406 14.34375 -2.671875 C 14.34375 -3.066406 13.847656 -4.53125 12.859375 -7.0625 C 12.796875 -7.21875 12.738281 -7.363281 12.6875 -7.5 C 12.632812 -7.632812 12.585938 -7.757812 12.546875 -7.875 Z M 9.078125 -16.46875 L 6.375 -9.1875 L 12 -9.1875 Z M 9.078125 -16.46875 "/></g></g></g><g fill="#ff66c4" fill-opacity="1"><g transform="translate(287.718379, 143.636356)"><g><path d="M 10.296875 -8.03125 C 10.054688 -8.382812 9.851562 -8.644531 9.6875 -8.8125 C 9.53125 -8.976562 9.335938 -9.101562 9.109375 -9.1875 C 8.878906 -9.28125 8.566406 -9.335938 8.171875 -9.359375 L 7.25 -9.421875 L 7.25 -3.71875 C 7.25 -3.007812 7.304688 -2.484375 7.421875 -2.140625 C 7.546875 -1.804688 7.710938 -1.582031 7.921875 -1.46875 C 8.140625 -1.363281 8.460938 -1.28125 8.890625 -1.21875 C 9.191406 -1.164062 9.460938 -1.109375 9.703125 -1.046875 C 9.941406 -0.992188 10.191406 -0.898438 10.453125 -0.765625 L 10.421875 0 L 1.03125 0 L 1 -0.765625 C 1.269531 -0.921875 1.519531 -1.03125 1.75 -1.09375 C 1.988281 -1.15625 2.257812 -1.210938 2.5625 -1.265625 C 2.957031 -1.316406 3.25 -1.398438 3.4375 -1.515625 C 3.632812 -1.628906 3.785156 -1.878906 3.890625 -2.265625 C 4.003906 -2.648438 4.0625 -3.265625 4.0625 -4.109375 L 4.0625 -15.328125 C 4.0625 -16.035156 4 -16.5625 3.875 -16.90625 C 3.757812 -17.257812 3.585938 -17.503906 3.359375 -17.640625 C 3.140625 -17.773438 2.796875 -17.914062 2.328125 -18.0625 C 1.828125 -18.195312 1.382812 -18.347656 1 -18.515625 L 1.03125 -19.296875 L 7.875 -19.296875 C 9.71875 -19.296875 11.328125 -19.207031 12.703125 -19.03125 C 14.085938 -18.863281 15.328125 -18.421875 16.421875 -17.703125 C 17.515625 -16.984375 18.0625 -15.875 18.0625 -14.375 C 18.0625 -13.445312 17.800781 -12.644531 17.28125 -11.96875 C 16.757812 -11.289062 16.09375 -10.757812 15.28125 -10.375 C 14.46875 -9.988281 13.597656 -9.726562 12.671875 -9.59375 C 12.785156 -9.425781 13.375 -8.601562 14.4375 -7.125 C 15.207031 -6.019531 15.867188 -5.097656 16.421875 -4.359375 C 16.972656 -3.617188 17.519531 -2.921875 18.0625 -2.265625 C 18.382812 -1.921875 18.675781 -1.648438 18.9375 -1.453125 C 19.195312 -1.253906 19.515625 -1.09375 19.890625 -0.96875 C 20.273438 -0.851562 20.757812 -0.796875 21.34375 -0.796875 L 21.34375 0.03125 C 20.375 0.269531 19.507812 0.390625 18.75 0.390625 C 17.695312 0.390625 16.734375 0.0664062 15.859375 -0.578125 C 14.984375 -1.222656 14.226562 -1.984375 13.59375 -2.859375 C 12.957031 -3.734375 12.226562 -4.851562 11.40625 -6.21875 C 10.925781 -7.050781 10.554688 -7.65625 10.296875 -8.03125 Z M 7.984375 -10.421875 C 9.242188 -10.421875 10.332031 -10.492188 11.25 -10.640625 C 12.175781 -10.785156 12.96875 -11.132812 13.625 -11.6875 C 14.28125 -12.238281 14.609375 -13.070312 14.609375 -14.1875 C 14.609375 -15.414062 14.253906 -16.320312 13.546875 -16.90625 C 12.835938 -17.488281 12.007812 -17.84375 11.0625 -17.96875 C 10.113281 -18.101562 8.953125 -18.171875 7.578125 -18.171875 L 7.25 -18.171875 L 7.25 -10.421875 Z M 7.984375 -10.421875 "/></g></g></g><g fill="#ff66c4" fill-opacity="1"><g transform="translate(333.290221, 143.636356)"><g><path d="M 4.328125 -14.96875 C 4.328125 -15.550781 4.273438 -16.144531 4.171875 -16.75 C 4.117188 -17.050781 3.972656 -17.296875 3.734375 -17.484375 C 3.492188 -17.679688 3.222656 -17.835938 2.921875 -17.953125 C 2.617188 -18.066406 2.234375 -18.1875 1.765625 -18.3125 C 1.410156 -18.414062 1.15625 -18.488281 1 -18.53125 L 1.03125 -19.296875 L 9.8125 -19.296875 C 12.28125 -19.296875 14.453125 -18.972656 16.328125 -18.328125 C 18.203125 -17.679688 19.679688 -16.648438 20.765625 -15.234375 C 21.859375 -13.816406 22.40625 -11.988281 22.40625 -9.75 C 22.40625 -8.03125 21.988281 -6.425781 21.15625 -4.9375 C 20.332031 -3.457031 19.113281 -2.265625 17.5 -1.359375 C 15.882812 -0.453125 13.945312 0 11.6875 0 L 1.03125 0 L 1 -0.765625 L 1.796875 -0.984375 C 2.347656 -1.109375 2.789062 -1.234375 3.125 -1.359375 C 3.457031 -1.492188 3.738281 -1.707031 3.96875 -2 C 4.207031 -2.300781 4.328125 -2.71875 4.328125 -3.25 Z M 7.515625 -4.015625 C 7.515625 -3.148438 7.675781 -2.472656 8 -1.984375 C 8.332031 -1.492188 8.898438 -1.226562 9.703125 -1.1875 C 10.253906 -1.15625 10.820312 -1.140625 11.40625 -1.140625 C 13.03125 -1.140625 14.40625 -1.515625 15.53125 -2.265625 C 16.65625 -3.023438 17.492188 -4.003906 18.046875 -5.203125 C 18.597656 -6.410156 18.875 -7.679688 18.875 -9.015625 C 18.875 -10.785156 18.554688 -12.351562 17.921875 -13.71875 C 17.296875 -15.09375 16.316406 -16.175781 14.984375 -16.96875 C 13.660156 -17.757812 12 -18.15625 10 -18.15625 L 7.515625 -18.15625 Z M 7.515625 -4.015625 "/></g></g></g></svg>